<svg width="195" height="65" viewBox="0 0 195 65" fill="none" xmlns="http://www.w3.org/2000/svg">
<rect x="0.8125" y="0.8125" width="193.375" height="63.375" rx="8.9375" fill="black"/>
<rect x="0.8125" y="0.8125" width="193.375" height="63.375" rx="8.9375" stroke="#A6A6A6" stroke-width="1.625"/>
<path d="M40.1448 33.7399C40.1645 32.245 40.5712 30.7793 41.3271 29.4792C42.0829 28.179 43.1633 27.0866 44.4678 26.3037C43.6391 25.1482 42.5459 24.1973 41.2749 23.5265C40.004 22.8557 38.5903 22.4835 37.1462 22.4393C34.0658 22.1237 31.0794 24.239 29.5096 24.239C27.9095 24.239 25.4926 22.4707 22.89 22.523C21.2066 22.5761 19.566 23.054 18.128 23.9102C16.69 24.7664 15.5037 25.9716 14.6847 27.4085C11.137 33.4054 13.7833 42.2188 17.1817 47.0663C18.8821 49.4399 20.8693 52.0913 23.4695 51.9973C26.014 51.8943 26.9643 50.4132 30.0357 50.4132C33.0786 50.4132 33.9702 51.9973 36.6232 51.9375C39.3536 51.8943 41.0738 49.5533 42.7145 47.1572C43.9362 45.4659 44.8763 43.5966 45.5 41.6186C43.9137 40.9636 42.5601 39.8672 41.6078 38.4662C40.6555 37.0651 40.1467 35.4213 40.1448 33.7399Z" fill="white"/>
<path d="M35.1338 19.2516C36.6225 17.5068 37.356 15.2642 37.1784 13C34.904 13.2332 32.8031 14.2945 31.2942 15.9723C30.5565 16.792 29.9915 17.7455 29.6315 18.7785C29.2715 19.8115 29.1236 20.9036 29.1962 21.9924C30.3338 22.0039 31.4592 21.7631 32.4877 21.2884C33.5162 20.8136 34.421 20.1172 35.1338 19.2516Z" fill="white"/>
<path d="M59.7854 14.3149H63.1489C66.0553 14.3149 67.4692 16.043 67.4692 19.178C67.4692 22.3129 66.041 24.0625 63.1489 24.0625H59.7854V14.3149ZM61.4064 15.6788V22.6985H62.9703C64.8984 22.6985 65.8054 21.5345 65.8054 19.1994C65.8054 16.85 64.8913 15.6788 62.9703 15.6788H61.4064ZM72.5966 16.3858C74.5675 16.3858 75.9457 17.6641 75.9457 19.785V20.7633C75.9457 22.9556 74.5675 24.191 72.5966 24.191C70.597 24.191 69.2331 22.9699 69.2331 20.7704V19.7921C69.2331 17.7283 70.6185 16.3858 72.5966 16.3858ZM72.6037 17.6641C71.4754 17.6641 70.8327 18.6067 70.8327 19.8707V20.7133C70.8327 21.9773 71.4326 22.9128 72.6037 22.9128C73.7606 22.9128 74.3533 21.9844 74.3533 20.7133V19.8707C74.3533 18.6067 73.732 17.6641 72.6037 17.6641ZM87.5858 16.5143L85.6005 24.0625H83.9866L82.4084 18.4924H82.3656L80.816 24.0625H79.1949L77.124 16.5143H78.8308L80.0447 22.2701H80.1162L81.6372 16.5143H83.1297L84.6936 22.2701H84.765L86.0004 16.5143H87.5858ZM89.1568 24.0625V16.5143H90.7136V17.8712H90.7921C90.9849 17.2784 91.5348 16.4001 93.063 16.4001C94.584 16.4001 95.6052 17.2427 95.6052 18.9637V24.0625H94.0199V19.4279C94.0199 18.2782 93.42 17.7498 92.5274 17.7498C91.3563 17.7498 90.7421 18.6495 90.7421 19.8707V24.0625H89.1568ZM98.0046 24.0625V13.8007H99.59V24.0625H98.0046ZM105.031 16.3858C107.002 16.3858 108.381 17.6641 108.381 19.785V20.7633C108.381 22.9556 107.002 24.191 105.031 24.191C103.032 24.191 101.668 22.9699 101.668 20.7704V19.7921C101.668 17.7283 103.053 16.3858 105.031 16.3858ZM105.039 17.6641C103.91 17.6641 103.268 18.6067 103.268 19.8707V20.7133C103.268 21.9773 103.867 22.9128 105.039 22.9128C106.195 22.9128 106.788 21.9844 106.788 20.7133V19.8707C106.788 18.6067 106.167 17.6641 105.039 17.6641ZM112.487 24.1768C111.023 24.1768 110.016 23.277 110.016 21.8702C110.016 20.5348 110.944 19.635 112.687 19.635H114.593V18.928C114.593 18.064 114.044 17.6569 113.172 17.6569C112.315 17.6569 111.93 18.014 111.808 18.5139H110.302C110.394 17.2499 111.344 16.4001 113.222 16.4001C114.836 16.4001 116.172 17.0714 116.172 18.9495V24.0625H114.665V23.0842H114.593C114.258 23.6626 113.601 24.1768 112.487 24.1768ZM112.98 22.9485C113.879 22.9485 114.593 22.3344 114.593 21.5131V20.699H112.937C112.016 20.699 111.608 21.1632 111.608 21.7916C111.608 22.5771 112.265 22.9485 112.98 22.9485ZM121.056 16.4144C122.12 16.4144 122.934 16.8857 123.227 17.6498H123.306V13.8007H124.891V24.0625H123.348V22.8557H123.27C123.041 23.6198 122.134 24.1625 121.035 24.1625C119.299 24.1625 118.171 22.9271 118.171 20.9347V19.6422C118.171 17.6498 119.321 16.4144 121.056 16.4144ZM121.499 17.7141C120.442 17.7141 119.785 18.4996 119.785 19.8707V20.699C119.785 22.0773 120.449 22.8628 121.535 22.8628C122.606 22.8628 123.306 22.0844 123.306 20.799V19.6564C123.306 18.4924 122.542 17.7141 121.499 17.7141ZM133.596 16.3858C135.567 16.3858 136.945 17.6641 136.945 19.785V20.7633C136.945 22.9556 135.567 24.191 133.596 24.191C131.596 24.191 130.232 22.9699 130.232 20.7704V19.7921C130.232 17.7283 131.618 16.3858 133.596 16.3858ZM133.603 17.6641C132.475 17.6641 131.832 18.6067 131.832 19.8707V20.7133C131.832 21.9773 132.432 22.9128 133.603 22.9128C134.76 22.9128 135.353 21.9844 135.353 20.7133V19.8707C135.353 18.6067 134.731 17.6641 133.603 17.6641ZM138.987 24.0625V16.5143H140.544V17.8712H140.623C140.816 17.2784 141.365 16.4001 142.894 16.4001C144.415 16.4001 145.436 17.2427 145.436 18.9637V24.0625H143.851V19.4279C143.851 18.2782 143.251 17.7498 142.358 17.7498C141.187 17.7498 140.573 18.6495 140.573 19.8707V24.0625H138.987ZM151.57 16.5643V14.6791H153.12V16.5643H154.812V17.8069H153.12V21.813C153.12 22.6343 153.427 22.8628 154.277 22.8628C154.491 22.8628 154.776 22.8485 154.898 22.8342V24.0482C154.769 24.0696 154.241 24.1125 153.884 24.1125C152.049 24.1125 151.549 23.4555 151.549 21.9416V17.8069H150.399V16.5643H151.57ZM156.812 24.0625V13.8007H158.39V17.8712H158.468C158.633 17.3356 159.247 16.4001 160.761 16.4001C162.232 16.4001 163.282 17.2499 163.282 18.9709V24.0625H161.703V19.4351C161.703 18.2853 161.068 17.7498 160.168 17.7498C159.033 17.7498 158.39 18.6424 158.39 19.8707V24.0625H156.812ZM168.602 24.191C166.545 24.191 165.267 22.9271 165.267 20.799V19.7778C165.267 17.6355 166.666 16.3858 168.509 16.3858C170.401 16.3858 171.737 17.6998 171.737 19.7778V20.6633H166.838V21.0347C166.838 22.1201 167.481 22.9199 168.595 22.9199C169.423 22.9199 169.994 22.5272 170.101 22.0558H171.651C171.558 22.9271 170.637 24.191 168.602 24.191ZM166.838 19.6279H170.187V19.5279C170.187 18.3925 169.523 17.6355 168.516 17.6355C167.509 17.6355 166.838 18.3925 166.838 19.5279V19.6279Z" fill="white"/>
<path d="M62.0848 50.6875H58.7856L65.4983 31.1923H69.126L75.8243 50.6875H72.3966L70.6685 45.2888H63.8273L62.0848 50.6875ZM67.3264 34.5629H67.1979L64.5557 42.8037H69.9401L67.3264 34.5629ZM84.9296 50.9017C82.9729 50.9017 81.4876 49.9734 80.6878 48.588H80.5735V55.7006H77.4029V35.5912H80.4878V37.8049H80.6021C81.4305 36.3624 82.9729 35.3912 85.001 35.3912C88.3859 35.3912 90.7996 37.9478 90.7996 42.4609V43.8035C90.7996 48.2881 88.4145 50.9017 84.9296 50.9017ZM84.2012 48.2881C86.215 48.2881 87.5861 46.6742 87.5861 43.6321V42.5752C87.5861 39.6473 86.3007 37.9763 84.1441 37.9763C81.9303 37.9763 80.545 39.7759 80.545 42.5609V43.6321C80.545 46.4885 81.9446 48.2881 84.2012 48.2881ZM101.047 50.9017C99.0908 50.9017 97.6054 49.9734 96.8056 48.588H96.6914V55.7006H93.5207V35.5912H96.6057V37.8049H96.7199C97.5483 36.3624 99.0908 35.3912 101.119 35.3912C104.504 35.3912 106.917 37.9478 106.917 42.4609V43.8035C106.917 48.2881 104.532 50.9017 101.047 50.9017ZM100.319 48.2881C102.333 48.2881 103.704 46.6742 103.704 43.6321V42.5752C103.704 39.6473 102.419 37.9763 100.262 37.9763C98.0482 37.9763 96.6628 39.7759 96.6628 42.5609V43.6321C96.6628 46.4885 98.0625 48.2881 100.319 48.2881ZM113.488 45.2745H116.659C116.801 46.9598 118.287 48.4023 121.043 48.4023C123.571 48.4023 125.071 47.2169 125.071 45.3745C125.071 43.8892 124.071 43.0894 121.986 42.5895L118.787 41.7897C116.273 41.2041 114.016 39.7045 114.016 36.5338C114.016 32.8062 117.273 30.7638 121.058 30.7638C124.842 30.7638 127.999 32.8062 128.07 36.4481H124.957C124.814 34.7914 123.543 33.4203 121.015 33.4203C118.787 33.4203 117.273 34.4772 117.273 36.291C117.273 37.5621 118.158 38.4762 119.972 38.8904L123.157 39.6759C126.085 40.39 128.313 41.7754 128.313 45.0889C128.313 48.9165 125.214 51.0731 120.8 51.0731C115.373 51.0731 113.559 47.9025 113.488 45.2745ZM132.177 35.5912V31.9207H135.29V35.5912H138.232V38.1334H135.29V46.1886C135.29 47.8311 135.904 48.2881 137.604 48.2881C137.875 48.2881 138.132 48.2881 138.318 48.2595V50.6875C138.061 50.7303 137.461 50.7875 136.818 50.7875C133.148 50.7875 132.134 49.4735 132.134 46.4457V38.1334H130.049V35.5912H132.177ZM146.795 35.3341C151.137 35.3341 153.493 38.3905 153.493 42.5038V43.7178C153.493 47.9739 151.151 50.9446 146.795 50.9446C142.439 50.9446 140.068 47.9739 140.068 43.7178V42.5038C140.068 38.4048 142.453 35.3341 146.795 35.3341ZM146.795 37.8763C144.438 37.8763 143.267 39.8044 143.267 42.5466V43.7035C143.267 46.4028 144.424 48.3881 146.795 48.3881C149.166 48.3881 150.308 46.4171 150.308 43.7035V42.5466C150.308 39.7902 149.151 37.8763 146.795 37.8763ZM156.171 50.6875V35.5912H159.342V37.5764H159.456C159.842 36.6338 160.97 35.377 163.07 35.377C163.484 35.377 163.841 35.4055 164.141 35.4626V38.262C163.87 38.1906 163.313 38.1477 162.784 38.1477C160.242 38.1477 159.385 39.7188 159.385 41.7468V50.6875H156.171ZM171.832 50.9446C167.79 50.9446 165.22 48.2738 165.22 43.8035V42.2753C165.22 38.062 167.733 35.3341 171.704 35.3341C175.731 35.3341 178.159 38.162 178.159 42.4181V43.8606H168.347V44.2177C168.347 46.7599 169.718 48.4452 171.875 48.4452C173.489 48.4452 174.589 47.6454 174.974 46.3457H177.988C177.531 48.788 175.56 50.9446 171.832 50.9446ZM168.347 41.6469H175.06V41.6183C175.06 39.476 173.732 37.7906 171.718 37.7906C169.676 37.7906 168.347 39.476 168.347 41.6183V41.6469Z" fill="white"/>
</svg>
