<svg width="60" height="60" viewBox="0 0 60 60" fill="none" xmlns="http://www.w3.org/2000/svg">
<path opacity="0.15" d="M6.25 20C6.25 12.9289 6.25 9.3934 8.4467 7.1967C10.6434 5 14.1789 5 21.25 5L38.75 5C45.8211 5 49.3566 5 51.5533 7.1967C53.75 9.3934 53.75 12.9289 53.75 20V27.5C53.75 34.5711 53.75 38.1066 51.5533 40.3033C49.3566 42.5 45.8211 42.5 38.75 42.5H21.25C14.1789 42.5 10.6434 42.5 8.4467 40.3033C6.25 38.1066 6.25 34.5711 6.25 27.5L6.25 20Z" stroke="#0B1638" stroke-width="1.3"/>
<path d="M20 24.3117L21.7414 22.0254C23.938 19.1414 27.8228 19.3712 29.7646 22.5001C31.6411 25.5237 35.3568 25.8594 37.6005 23.2082L40 20.3729" stroke="#0B1638" stroke-width="1.3" stroke-linecap="round" stroke-linejoin="round"/>
<path d="M29.35 55C29.35 55.359 29.641 55.65 30 55.65C30.359 55.65 30.65 55.359 30.65 55L30 55L29.35 55ZM30 42.5L29.35 42.5L29.35 55L30 55L30.65 55L30.65 42.5L30 42.5Z" fill="#0B1638"/>
<path d="M21.25 55L22.0705 54.1794C23.5157 52.734 24.2383 52.0113 25.1572 51.6307C26.0761 51.25 27.0981 51.25 29.142 51.25H30.8574C32.9011 51.25 33.923 51.25 34.8419 51.6306C35.7607 52.0112 36.4833 52.7338 37.9285 54.1789L38.7495 55" stroke="#0B1638" stroke-width="1.3" stroke-linecap="round" stroke-linejoin="round"/>
</svg>
